# xmcd
#
# Track frame offsets:
#	150
#	17380
#	40625
#
# Disc length: 700 seconds
#
# Revision: 4
# Processed by: cddbd v1.5.2PL0 Copyright (c) Steve Scherf et al.
# Submitted via: audiograbber 1.83.01
#
DISCID=1202ba03
DTITLE=Raitt, Bonnie - Something to talk about
DYEAR=1991
DGENRE=Blues
TTITLE0=Something to talk about
TTITLE1=One part be my lover
TTITLE2=I aint gonna let you break my heart again
EXTD=
EXTT0=
EXTT1=
EXTT2=
PLAYORDER=
